<?xml version="1.0" encoding="UTF-8" standalone="no"?>
<!-- Created with Inkscape (http://www.inkscape.org/) -->

<svg
   width="229.05882mm"
   height="218.10529mm"
   viewBox="0 0 229.05882 218.10529"
   version="1.1"
   id="svg1"
   xml:space="preserve"
   xmlns:inkscape="http://www.inkscape.org/namespaces/inkscape"
   xmlns:sodipodi="http://sodipodi.sourceforge.net/DTD/sodipodi-0.dtd"
   xmlns="http://www.w3.org/2000/svg"
   xmlns:svg="http://www.w3.org/2000/svg"><sodipodi:namedview
     id="namedview1"
     pagecolor="#ffffff"
     bordercolor="#000000"
     borderopacity="0.25"
     inkscape:showpageshadow="2"
     inkscape:pageopacity="0.0"
     inkscape:pagecheckerboard="0"
     inkscape:deskcolor="#d1d1d1"
     inkscape:document-units="mm"><inkscape:page
       x="0"
       y="0"
       width="229.05882"
       height="218.10529"
       id="page2"
       margin="0"
       bleed="0" /></sodipodi:namedview><defs
     id="defs1" /><g
     inkscape:label="Ebene 1"
     inkscape:groupmode="layer"
     id="layer1"
     transform="translate(-259.711,-21.252003)"><path
       style="fill:#000000"
       d="m 366.98523,239.11057 -3.04271,-0.20332 -2.24896,-0.26098 -2.24896,-0.26098 -2.21682,-0.29126 -2.21681,-0.29127 -0.24552,-0.15174 -0.24552,-0.15174 -1.37412,-0.22454 -1.37412,-0.22454 -1.19063,-0.29424 -1.19062,-0.29425 -1.19063,-0.2648 -1.19062,-0.2648 -0.86235,-0.14684 -0.86235,-0.14684 -0.14545,-0.23535 -0.14546,-0.23535 h -0.89481 -0.89481 l -0.16352,-0.26458 -0.16352,-0.26459 h -0.56092 -0.56091 l -0.94483,-0.2993 -0.94482,-0.2993 -1.05834,-0.38932 -1.05833,-0.38932 -0.45943,-0.23742 -0.45943,-0.23742 h -0.51714 -0.51714 l -0.13114,-0.21219 -0.13114,-0.21219 -1.35645,-0.36937 -1.35645,-0.36937 -0.13114,-0.21219 -0.13114,-0.21219 h -0.59293 -0.59293 l -0.25135,-0.21057 -0.25136,-0.21057 -1.05833,-0.35449 -1.05833,-0.35449 -1.98438,-0.92034 -1.98437,-0.92033 -1.85209,-0.89879 -1.85208,-0.8988 -2.38125,-1.2747 -2.38125,-1.2747 -1.03846,-0.59591 -1.03845,-0.59591 -1.41408,-0.90458 -1.41408,-0.90457 h -0.20955 -0.20956 l -0.51291,-0.47183 -0.51291,-0.47182 -3.04271,-2.09582 -3.04271,-2.09582 -0.0882,-0.21048 -0.0882,-0.21048 h -0.24958 -0.24959 l -0.85284,-0.76678 -0.85285,-0.76677 -1.25907,-0.95303 -1.25906,-0.95302 -0.84861,-0.72759 -0.8486,-0.7276 -2.7595,-2.64584 -2.75951,-2.64583 -2.14428,-2.11932 -2.14428,-2.11931 -1.32292,-1.58305 -1.32292,-1.58304 -0.33473,-0.35544 -0.33473,-0.35543 -0.7236,-0.96929 -0.7236,-0.96928 -0.33167,-0.35057 -0.33166,-0.35056 -0.8415,-1.23694 -0.8415,-1.23693 -0.16199,-0.1323 -0.162,-0.13229 -2.03828,-2.96486 -2.03828,-2.96486 v -0.27628 -0.27629 h -0.23443 -0.23444 l -0.43434,-0.8599 -0.43433,-0.85989 -0.32342,-0.5248 -0.32341,-0.5248 -0.6764,-1.0627 -0.67639,-1.0627 -1.80491,-3.57188 -1.80492,-3.57187 -0.23067,-0.25135 -0.23067,-0.25136 v -0.47984 -0.47984 l -0.23371,-0.45943 -0.23372,-0.45943 -0.26908,-0.66146 -0.26909,-0.66146 -0.56218,-1.26802 -0.56218,-1.26802 -0.41483,-1.11323 -0.41484,-1.11323 -0.20332,-0.52916 -0.20331,-0.52917 -0.30124,-0.94483 -0.30125,-0.94482 v -0.56092 -0.56091 l -0.26458,-0.16352 -0.26459,-0.16352 v -0.76252 -0.76252 l -0.26458,-0.16352 -0.26458,-0.16353 v -0.76252 -0.76252 l -0.23664,-0.14624 -0.23663,-0.14625 -0.13709,-0.99385 -0.13709,-0.99384 -0.44765,-1.45521 -0.44764,-1.45521 -0.24911,-1.19063 -0.24912,-1.19062 -0.26604,-1.32292 -0.26605,-1.32291 -0.25072,-1.71979 -0.25071,-1.7198 -0.30473,-2.51354 -0.30472,-2.51354 -0.0191,-8.59896 -0.0191,-8.59896 0.33231,-3.175 0.33231,-3.175 0.24226,-1.71979 0.24226,-1.71979 0.26459,-1.32292 0.26458,-1.32291 0.2679,-1.32292 0.26789,-1.32292 0.4324,-1.4552 0.43241,-1.45521 0.13757,-0.73084 0.13756,-0.73084 0.23408,-0.14467 0.23408,-0.14467 v -0.89481 -0.894814 l 0.26458,-0.163521 0.26459,-0.163522 v -0.630228 -0.630229 l 0.26458,-0.163521 0.26458,-0.163522 v -0.76252 -0.76252 l 0.26459,-0.163522 0.26458,-0.163521 v -0.434268 -0.434268 l 0.94491,-2.52668 0.94491,-2.526679 0.24572,-0.459431 0.24571,-0.459431 v -0.3633 -0.3633 l 0.83036,-1.690811 0.83035,-1.69081 0.67776,-1.322917 0.67775,-1.322917 0.80538,-1.587499 0.80537,-1.5875 0.13433,-0.132292 0.13433,-0.132292 0.39377,-0.79375 0.39377,-0.79375 1.39175,-2.348909 1.39175,-2.34891 V 72.150598 71.91982 h 0.26458 0.26458 v -0.290442 -0.290443 l 1.51745,-2.156953 1.51744,-2.156953 0.31837,-0.396875 0.31836,-0.396875 1.40534,-1.872346 1.40533,-1.872347 0.92605,-1.155491 0.92604,-1.155492 1.31156,-1.470079 1.31156,-1.470078 3.58323,-3.579054 3.58323,-3.579054 1.71979,-1.417669 1.71979,-1.417668 1.16364,-0.956402 1.16364,-0.956403 0.33882,-0.330729 0.33881,-0.330729 h 0.26144 0.26143 l 0.0882,-0.203393 0.0882,-0.203393 1.85208,-1.304442 1.85209,-1.304442 0.0882,-0.211957 0.0882,-0.211956 h 0.37482 0.37483 v -0.264584 -0.264583 h 0.25633 0.25634 l 1.89138,-1.256771 1.89138,-1.25677 1.22572,-0.692082 1.22572,-0.692082 1.45521,-0.782183 1.45521,-0.782183 1.05833,-0.651829 1.05834,-0.651829 1.71979,-0.822869 1.71979,-0.82287 1.25389,-0.556766 1.25389,-0.556766 h 0.12794 0.12794 l 1.52859,-0.684121 1.52858,-0.684121 0.45944,-0.241921 0.45943,-0.24192 h 0.51714 0.51714 l 0.16352,-0.264583 0.16352,-0.264584 h 0.51714 0.51715 l 0.45943,-0.254392 0.45943,-0.254393 2.91041,-0.954638 2.91042,-0.954637 0.52917,-0.21602 0.52916,-0.21602 1.19063,-0.316572 1.19062,-0.316571 0.92605,-0.230189 0.92604,-0.230188 0.79375,-0.156699 0.79375,-0.156698 1.05833,-0.266161 1.05833,-0.266162 1.32292,-0.274439 1.32292,-0.274438 1.05833,-0.203535 1.05833,-0.203534 3.175,-0.544215 3.175,-0.544216 2.11667,-0.289056 2.11667,-0.289056 2.35208,0.0017 2.35208,0.0017 0.35148,0.463021 0.35149,0.463021 0.008,3.351502 0.008,3.351502 -0.50595,1.18032 -0.50594,1.18032 -0.74813,0.693698 -0.74812,0.693699 h -0.41281 -0.4128 l -0.25136,0.243975 -0.25135,0.243974 -1.85209,0.133394 -1.85208,0.133393 -1.71979,0.282946 -1.71979,0.282945 -1.32292,0.240569 -1.32292,0.240569 -1.05833,0.171142 -1.05833,0.171141 -0.92604,0.24119 -0.92605,0.241189 -1.85208,0.422451 -1.85208,0.422451 -1.85209,0.540121 -1.85208,0.540122 -0.52917,0.207598 -0.52916,0.207598 -1.19063,0.320528 -1.19062,0.320529 -0.45943,0.238796 -0.45943,0.238796 h -0.51715 -0.51714 l -0.16352,0.264583 -0.16352,0.264583 h -0.63023 -0.63023 l -0.1454,0.235273 -0.14541,0.235273 -0.71227,0.178768 -0.71227,0.178769 -1.05972,0.512 -1.05972,0.512001 h -0.34718 -0.34717 v 0.264583 0.264583 h -0.40047 -0.40046 l -0.45943,0.233762 -0.45944,0.233762 -3.70416,1.804789 -3.70417,1.804788 -0.13229,0.144262 -0.13229,0.144262 -0.63156,0.35561 -0.63157,0.355609 -0.82364,0.463892 -0.82365,0.463891 -1.50864,0.966437 -1.50865,0.966436 h -0.25524 -0.25525 l -0.0882,0.206882 -0.0882,0.206882 -2.64583,1.817393 -2.64583,1.817394 -0.13229,0.167267 -0.1323,0.167268 -1.32291,0.959408 -1.32292,0.959407 -0.66146,0.717958 -0.66146,0.717958 -1.32291,0.993425 -1.32292,0.993425 -3.52238,3.514589 -3.52237,3.51459 -2.55753,3.198597 -2.55752,3.198598 -0.20396,0.08819 -0.20395,0.08819 v 0.352778 0.352777 l -0.21811,0.0882 -0.21811,0.08819 -1.23576,1.852084 -1.23576,1.852083 -0.19977,0.278057 -0.19978,0.278056 -0.33073,0.581839 -0.33073,0.58184 -0.33073,0.595312 -0.33073,0.595313 -0.13229,0.132291 -0.13229,0.132292 -0.46618,0.79375 -0.46619,0.79375 -1.38091,2.778125 -1.38091,2.778125 -0.20343,0.08819 -0.20342,0.08819 v 0.35853 0.35853 l -0.7703,1.405359 -0.77029,1.405359 -0.44494,1.190625 -0.44494,1.190625 -0.20457,0.529167 -0.20458,0.529166 -0.33085,0.79375 -0.33085,0.79375 -0.23372,0.459431 -0.23371,0.459431 v 0.517142 0.517141 l -0.23408,0.144669 -0.23408,0.144668 -0.13131,0.730842 -0.1313,0.730847 -0.72024,2.24895 -0.72023,2.24896 -0.25387,1.05833 -0.25387,1.05834 -0.25838,1.32291 -0.25839,1.32292 -0.26473,1.45521 -0.26473,1.45521 -0.25036,1.71979 -0.25037,1.71979 -0.33379,2.91042 -0.33379,2.91041 0.002,6.21771 0.002,6.21771 0.33196,3.04271 0.33197,3.04271 0.25681,2.11666 0.25682,2.11667 0.25786,1.45521 0.25787,1.45521 0.25838,1.32291 0.25838,1.32292 0.24823,1.05833 0.24823,1.05834 0.83411,2.51354 0.83411,2.51354 0.25715,0.45943 0.25715,0.45943 v 0.47984 0.47984 l 0.21057,0.25136 0.21058,0.25135 0.33608,1.05833 0.33608,1.05834 0.22012,0.52916 0.22012,0.52917 0.45771,1.05833 0.45772,1.05834 0.78748,1.71979 0.78748,1.71979 1.04832,2.14172 1.04832,2.14172 0.56462,0.90099 0.56463,0.90099 0.48337,0.79375 0.48336,0.79375 0.15592,0.46302 0.15591,0.46302 h 0.23372 0.23373 v 0.26616 0.26616 l 2.28158,3.50415 2.28158,3.50415 0.69498,0.80822 0.69498,0.80822 0.66146,0.89128 0.66146,0.89127 0.52917,0.55127 0.52916,0.55126 0.77581,1.05653 0.7758,1.05654 4.51586,4.52119 4.51586,4.52119 3.43959,2.7032 3.43958,2.70319 0.46605,0.38239 0.46604,0.38238 h 0.26156 0.26156 v 0.20184 0.20184 l 0.48732,0.26118 0.48731,0.26118 1.96008,1.29311 1.96008,1.29312 0.13229,0.16209 0.13229,0.16209 0.63157,0.35561 0.63156,0.35561 0.87254,0.49008 0.87253,0.49007 1.07033,0.67567 1.07033,0.67567 h 0.26984 0.26985 l 0.002,0.19844 0.002,0.19844 0.71214,0.33073 0.71214,0.33073 h 0.32208 0.32208 l 0.0882,0.19843 0.0882,0.19844 1.62579,0.85278 1.62579,0.85277 1.41691,0.55693 1.41692,0.55693 0.92604,0.40321 0.92605,0.40321 0.66145,0.27301 0.66146,0.273 0.66146,0.26459 0.66146,0.26458 0.52917,0.2196 0.52916,0.21959 2.77813,0.89714 2.77812,0.89714 1.19063,0.32886 1.19062,0.32886 0.45943,0.2388 0.45943,0.23879 h 0.78173 0.78172 l 0.16353,0.26459 0.16352,0.26458 h 0.76568 0.76569 l 0.60776,0.23948 0.60776,0.23949 2.38125,0.5485 2.38125,0.5485 1.85209,0.30753 1.85208,0.30752 2.91042,0.22729 2.91041,0.22729 6.43507,0.15667 6.43506,0.15667 0.77483,-0.32094 0.77484,-0.32095 v -38.5569 -38.55691 l 0.50114,-2.35526 0.50115,-2.35527 0.43323,-1.32292 0.43324,-1.32291 0.25624,-0.45943 0.25625,-0.45943 v -0.40406 -0.40405 l 0.23371,-0.45944 0.23372,-0.45943 0.27552,-0.66145 0.27552,-0.66146 0.16612,-0.79375 0.16611,-0.79375 0.42488,-2.51247 0.42487,-2.51247 -0.32718,-2.7792 -0.32718,-2.7792 -0.22595,-0.79375 -0.22595,-0.79375 -0.3083,-1.19062 -0.3083,-1.19063 -0.2388,-0.45943 -0.23879,-0.45943 v -0.47984 -0.47984 l -0.21057,-0.25135 -0.21057,-0.25136 -0.28228,-0.92604 -0.28227,-0.92604 -0.41712,-1.45521 -0.41712,-1.45521 -0.29079,-1.05833 -0.29079,-1.05833 0.0763,-45.24375 0.0763,-45.243748 2.64583,0.08795 2.64584,0.08795 3.175,0.395736 3.175,0.395736 1.71979,0.227084 1.71979,0.227084 1.98437,0.445052 1.98438,0.445053 1.19062,0.25035 1.19063,0.250351 0.99384,0.143129 0.99385,0.14313 0.14625,0.236634 0.14625,0.236635 h 0.89481 0.89481 l 0.16352,0.264583 0.16352,0.264583 h 0.76252 0.76252 l 0.16353,0.264584 0.16352,0.264583 h 0.72522 0.72521 l 0.25136,0.220592 0.25135,0.220591 2.38125,0.754369 2.38125,0.754369 0.25136,0.215665 0.25135,0.215664 h 0.59293 0.59292 l 0.16353,0.264583 0.16352,0.264583 h 0.51714 0.51714 l 0.45943,0.233714 0.45943,0.233714 0.66146,0.268073 0.66146,0.268073 1.52858,0.688838 1.52859,0.688838 h 0.12794 0.12795 l 1.25388,0.555853 1.25389,0.555852 1.98438,0.979044 1.98437,0.979044 1.98438,1.035156 1.98437,1.035157 0.13229,0.161225 0.13229,0.161226 0.39688,0.173535 0.39687,0.173535 0.96756,0.600916 0.96755,0.600916 1.4137,0.850219 1.41369,0.85022 0.79375,0.472697 0.79375,0.472697 0.1323,0.14826 0.13229,0.14826 1.85208,1.297935 1.85208,1.297935 0.1323,0.154052 0.13229,0.154053 0.92604,0.635963 0.92604,0.635963 0.13229,0.145039 0.13229,0.14504 1.32292,1.052872 1.32292,1.052872 0.28992,0.270045 0.28991,0.270044 2.09134,1.847016 2.09133,1.847017 2.65479,2.6509 2.6548,2.6509 0.7881,0.926042 0.78811,0.926041 2.25719,2.645833 2.25718,2.645834 0.64272,0.926041 0.64273,0.926042 0.47021,0.512911 0.47021,0.512911 v 0.324936 0.324936 l 0.2237,0.08819 0.2237,0.08819 0.96692,1.354516 0.96693,1.354516 v 0.177901 0.177902 l 0.52917,0.567993 0.52916,0.567994 v 0.346985 0.346985 h 0.21558 0.21558 l 0.44785,0.859896 0.44786,0.859895 0.67077,1.058334 0.67077,1.058333 0.15187,0.463021 0.15186,0.463021 h 0.23372 0.23373 v 0.507118 0.507118 l 0.20656,0.08819 0.20657,0.08819 1.51529,3.042708 1.51528,3.042708 -0.002,0.330729 -0.002,0.330729 h 0.26458 0.26459 v 0.400465 0.400465 l 0.26498,0.459431 0.26498,0.459431 0.92564,2.206258 0.92565,2.206259 v 0.373429 0.373429 h 0.26458 0.26458 v 0.532757 0.532756 l 0.2388,0.459431 0.23879,0.459431 0.33803,1.190625 0.33803,1.190625 0.18369,0.264583 0.18368,0.264583 0.14037,0.79375 0.14038,0.79375 0.71115,2.38125 0.71116,2.38125 0.22795,0.92604 0.22795,0.92604 0.29513,1.19063 0.29514,1.19062 0.24809,1.45521 0.24809,1.45521 0.25765,1.85208 0.25766,1.85208 0.27758,1.85209 0.27758,1.85208 0.29529,5.77866 0.29529,5.77866 -0.29635,5.59842 -0.29636,5.59843 -0.27488,2.11666 -0.27488,2.11667 -0.24933,1.85208 -0.24933,1.85209 -0.26247,1.4552 -0.26248,1.45521 -0.27861,1.25677 -0.27862,1.25677 -0.23943,1.12448 -0.23942,1.12448 -0.3085,1.05834 -0.30849,1.05833 -0.47498,1.45521 -0.47497,1.45521 -0.33018,1.19062 -0.33018,1.19063 -0.21694,0.52916 -0.21693,0.52917 -0.31874,1.05833 -0.31873,1.05834 -0.20095,0.52916 -0.20094,0.52917 -0.42385,0.96603 -0.42385,0.96603 v 0.17512 0.17512 l -0.82017,1.76927 -0.82017,1.76926 -0.53402,1.19063 -0.53403,1.19062 -0.52744,1.05834 -0.52743,1.05833 -0.9327,1.71979 -0.9327,1.71979 -0.7173,1.33941 -0.71729,1.3394 -0.76035,1.30643 -0.76035,1.30643 -0.47053,0.51291 -0.47052,0.51291 v 0.32494 0.32493 l -0.21048,0.0882 -0.21049,0.0882 -2.09426,3.04271 -2.09427,3.04271 -0.35319,0.36173 -0.35319,0.36173 -2.16984,2.68098 -2.16985,2.68098 -3.70503,3.71768 -3.70503,3.71769 -1.46491,1.3094 -1.46491,1.30939 -0.78405,0.66293 -0.78405,0.66294 -1.31521,1.05686 -1.31522,1.05685 -0.49295,0.39688 -0.49295,0.39687 -0.70537,0.59499 -0.70538,0.59499 -0.21734,3.3e-4 -0.21733,3.2e-4 -0.40615,0.40615 -0.40614,0.40614 -1.62548,1.09686 -1.62548,1.09685 -0.0882,0.21679 -0.0882,0.21679 h -0.24553 -0.24553 l -1.51836,1.03047 -1.51836,1.03047 -1.71979,0.91412 -1.7198,0.91413 -0.97493,0.55474 -0.97493,0.55473 -1.00944,0.61895 -1.00945,0.61895 -1.71979,0.81666 -1.71979,0.81665 -2.64583,1.25361 -2.64584,1.2536 -0.66145,0.26629 -0.66146,0.26629 -0.45943,0.23371 -0.45943,0.23372 h -0.64944 -0.64943 l -0.16352,0.26458 -0.16352,0.26458 h -0.51714 -0.51715 l -0.45943,0.22977 -0.45943,0.22976 -1.32291,0.46466 -1.32292,0.46466 -1.05833,0.40133 -1.05834,0.40132 -1.05833,0.20721 -1.05833,0.20722 -1.05834,0.30915 -1.05833,0.30916 -0.92604,0.12408 -0.92604,0.12408 -0.52917,0.23015 -0.52917,0.23014 -0.79375,0.13702 -0.79375,0.13701 -1.32291,0.26922 -1.32292,0.26923 -1.85208,0.41344 -1.85209,0.41343 -1.85208,0.28533 -1.85208,0.28533 -2.11667,0.23169 -2.11667,0.23168 -4.23333,0.247 -4.23333,0.24701 -4.23334,-0.0217 -4.23333,-0.0218 z m 56.56444,-28.06417 0.98243,-0.33603 1.05834,-0.7078 1.05833,-0.70779 0.66146,-0.7119 0.66146,-0.71191 0.002,-8.90735 0.002,-8.90735 0.21215,-0.33073 0.21215,-0.33073 h 1.0136 1.01359 l 2.60881,-0.55687 2.60881,-0.55687 1.05834,-0.25316 1.05833,-0.25315 0.79375,-0.13405 0.79375,-0.13404 0.59531,-0.24655 0.59532,-0.24656 0.66145,-0.26458 0.66146,-0.26458 0.66146,-0.26459 0.66146,-0.26458 0.7276,-0.29681 0.72761,-0.29682 0.69929,-0.36287 0.69928,-0.36288 1.1528,-0.59708 1.15279,-0.59708 0.0882,-0.19844 0.0882,-0.19844 h 0.31654 0.31653 l 2.50569,-2.07512 2.50569,-2.07512 1.20389,-1.29831 1.2039,-1.29832 0.50679,-0.8599 0.5068,-0.85989 h 0.20754 0.20754 v -0.37483 -0.37483 l 0.21156,-0.0882 0.21157,-0.0882 0.8129,-1.7198 0.81291,-1.71979 0.39971,-0.92604 0.39972,-0.92604 0.26492,-0.79375 0.26492,-0.79375 0.27553,-1.05833 0.27553,-1.05834 0.2748,-1.45521 0.2748,-1.4552 0.1901,-1.5875 0.19011,-1.5875 -0.0187,-2.38125 -0.0187,-2.38125 -0.17747,-1.85209 -0.17747,-1.85208 -0.22906,-0.52917 -0.22906,-0.52916 -0.15222,-0.72761 -0.15222,-0.7276 -0.15222,-0.72761 -0.15222,-0.7276 -0.21768,-0.52917 -0.21767,-0.52916 -0.45772,-1.05834 -0.45771,-1.05833 -0.78754,-1.65365 -0.78754,-1.65364 h -0.23693 -0.23693 l -0.003,-0.33073 -0.003,-0.33073 -1.29583,-1.71979 -1.29583,-1.71979 -1.81048,-1.72496 -1.81048,-1.72495 -1.05834,-0.78058 -1.05833,-0.78058 -0.51291,-0.47103 -0.51291,-0.47103 h -0.34699 -0.34698 v -0.2152 -0.2152 l -0.92604,-0.36335 -0.92604,-0.36335 v -0.2152 -0.2152 h -0.3099 -0.3099 l -0.4177,-0.36832 -0.41771,-0.36833 -2.24896,-1.15303 -2.24896,-1.15303 -0.0882,-0.19843 -0.0882,-0.19844 -0.30868,0.001 -0.30868,0.001 -1.98437,-0.96232 -1.98438,-0.96232 -0.59531,-0.22949 -0.59531,-0.22949 -0.72761,-0.29998 -0.7276,-0.29999 -0.59531,-0.22918 -0.59532,-0.22918 -0.7276,-0.29546 -0.72761,-0.29545 -0.45943,-0.23371 -0.45943,-0.23372 h -0.35945 -0.35946 l -0.46357,-0.51223 -0.46357,-0.51224 -0.23722,-13.70911 -0.23723,-13.709122 -0.16896,-2.92431 -0.16895,-2.92431 -4.61993,0.06066 -4.61994,0.06066 -0.10196,0.10196 -0.10196,0.10196 -0.018,14.329262 -0.018,14.32927 -0.25163,0.15552 -0.25164,0.15552 -0.86044,-0.4783 -0.86043,-0.4783 -0.0882,-0.19844 -0.0882,-0.19844 h -0.36678 -0.36678 l -0.94214,-0.52916 -0.94214,-0.52917 h -0.24734 -0.24735 l -1.138,-0.7276 -1.13801,-0.72761 -1.05399,-0.77641 -1.054,-0.7764 -1.86595,-1.86943 -1.86594,-1.86943 -1.06313,-1.5875 -1.06314,-1.5875 -0.73827,-2.24896 -0.73827,-2.248956 -0.0205,-2.645833 -0.0205,-2.645833 0.4758,-1.920586 0.47581,-1.920585 0.23551,-0.14555 0.2355,-0.145551 v -0.395777 -0.395778 l 1.03172,-1.506836 1.03171,-1.506837 0.88652,-0.82049 0.88651,-0.820491 1.71979,-1.177956 1.7198,-1.177956 1.32291,-0.614759 1.32292,-0.61476 0.52917,-0.200907 0.52916,-0.200907 1.05834,-0.273793 1.05833,-0.273794 1.14936,-0.303607 1.14937,-0.303608 3.61313,-0.229115 3.61314,-0.229114 2.77812,0.257649 2.77813,0.257648 0.92604,0.244529 0.92604,0.244528 1.71979,0.434346 1.71979,0.434346 0.73085,0.134923 0.73084,0.134924 0.14467,0.234078 0.14467,0.234078 h 0.51714 0.51714 l 0.45943,0.233714 0.45943,0.233714 0.79375,0.326322 0.79375,0.326322 0.51974,0.271376 0.51974,0.271376 2.25838,1.190683 2.25839,1.190684 0.59325,0.293009 0.59325,0.293008 0.002,0.198438 0.002,0.198437 h 0.27417 0.27418 l 1.77634,1.341709 1.77635,1.341708 0.95421,0.768224 0.9542,0.768223 0.83173,0.850713 0.83173,0.850712 0.0397,-8.120019 0.0397,-8.12002 0.0265,-0.301893 0.0264,-0.301893 -0.52916,-0.293419 -0.52917,-0.29342 -0.13229,-0.132291 -0.13229,-0.132292 -1.32292,-0.73832 -1.32292,-0.738319 -1.71979,-0.84918 -1.71979,-0.849181 -0.0882,-0.198437 -0.0882,-0.198438 h -0.50712 -0.50711 v -0.199995 -0.199996 l -0.8599,-0.355823 -0.8599,-0.355823 -0.79375,-0.350181 -0.79375,-0.350181 -1.4552,-0.513846 -1.45521,-0.513847 -1.19063,-0.330631 -1.19062,-0.330631 -0.66146,-0.211918 -0.66146,-0.211918 -1.05833,-0.179431 -1.05834,-0.179431 -1.32291,-0.261213 -1.32292,-0.261213 -1.71979,-0.134888 -1.71979,-0.134888 -0.29485,-0.242814 -0.29484,-0.242814 -0.17203,-6.016655 -0.17203,-6.016654 -0.16038,-3.373437 -0.16038,-3.373438 H 422.01322 417.31 l -0.0935,9.484435 -0.0935,9.484435 -0.36312,0.43744 -0.36313,0.43744 h -1.01032 -1.01032 l -0.16352,0.264583 -0.16353,0.264583 h -0.56091 -0.56091 l -0.81254,0.246655 -0.81253,0.246655 -1.19063,0.320658 -1.19062,0.320659 -1.12133,0.35452 -1.12133,0.35452 -0.46617,0.240993 -0.46617,0.240992 -1.85208,0.872364 -1.85209,0.872364 -2.11666,1.450639 -2.11667,1.450638 -2.00467,2.004276 -2.00466,2.004275 -1.37259,1.852084 -1.3726,1.852083 -0.95378,1.984375 -0.95378,1.984375 -0.23302,0.45943 -0.23303,0.459431 v 0.517142 0.517142 l -0.26458,0.163521 -0.26458,0.163522 v 0.894812 0.894811 l -0.2255,0.139363 -0.22549,0.139362 -0.22302,1.926773 -0.22302,1.926774 0.003,3.042708 0.003,3.042708 0.21994,2.058896 0.21995,2.0589 0.22576,0.13953 0.22576,0.13953 v 0.76252 0.76252 l 0.26458,0.16352 0.26458,0.16352 v 0.4341 0.43409 l 1.24202,2.593 1.24202,2.593 h 0.21319 0.21319 v 0.28306 0.28306 l 0.76121,1.106 0.7612,1.10601 2.50694,2.51354 2.50694,2.51354 0.50328,0.40475 0.50329,0.40475 2.53012,1.76402 2.53011,1.76401 1.83439,0.98333 1.8344,0.98333 1.5875,0.78082 1.5875,0.78083 0.45943,0.23427 0.45943,0.23427 h 0.53275 0.53276 v 0.26458 0.26458 h 0.40047 0.40046 l 0.52558,0.26459 0.52557,0.26458 0.52558,0.26458 0.52558,0.26459 h 0.41396 0.41397 l 0.38964,0.93253 0.38964,0.93254 0.13427,16.59611 0.13426,16.59611 0.15015,2.97656 0.15016,2.97656 h 5.01154 5.01154 l -0.14098,-6.15156 -0.14097,-6.15156 -0.12451,-10.58334 -0.1245,-10.58333 0.1928,-1.05548 0.1928,-1.05549 0.49377,-0.0951 0.49377,-0.0951 0.56054,0.25716 0.56053,0.25716 1.19063,0.52793 1.19062,0.52792 3.175,1.53728 3.175,1.53728 1.10601,0.74644 1.106,0.74644 h 0.16967 0.16966 l 0.3542,0.33073 0.3542,0.33073 2.27273,2.2333 2.27274,2.2333 v 0.34639 0.34638 h 0.26459 0.26458 v 0.39688 0.39687 h 0.26458 0.26459 v 0.28989 0.28988 l 0.50391,0.70769 0.50392,0.70769 0.4625,1.44982 0.4625,1.44982 0.19285,0.26459 0.19286,0.26458 0.17009,1.05833 0.1701,1.05834 0.15789,1.67296 0.1579,1.67297 -0.32248,1.63433 -0.32249,1.63432 -0.66201,1.71979 -0.66202,1.71979 -0.26306,0.49927 -0.26306,0.49927 -0.52851,0.94098 -0.52852,0.94098 -0.96796,1.18539 -0.96796,1.1854 -1.66891,1.37938 -1.66891,1.37938 -2.43213,1.18886 -2.43213,1.18885 -0.74005,0.29623 -0.74006,0.29622 h -0.76568 -0.76569 l -0.14625,0.23664 -0.14624,0.23663 -1.12614,0.16031 -1.12614,0.16031 -3.47811,0.28008 -3.47812,0.28008 -3.66563,-0.27593 -3.66564,-0.27593 -1.71979,-0.26403 -1.71979,-0.26403 -1.32292,-0.2812 -1.32291,-0.2812 -0.73085,-0.15095 -0.73084,-0.15096 -0.14467,-0.23407 -0.14467,-0.23408 h -0.53971 -0.53971 l -0.96603,-0.42385 -0.96602,-0.42386 -0.52917,-0.20521 -0.52917,-0.20522 -1.71979,-0.79793 -1.71979,-0.79794 -0.92604,-0.4324 -0.92604,-0.43239 -0.52289,-0.32341 -0.52289,-0.32342 -1.51311,-0.99218 -1.51312,-0.99219 h -0.2791 -0.2791 v -0.20754 -0.20754 l -0.8599,-0.49362 -0.85989,-0.49362 -2.6998,-1.81238 -2.6998,-1.81239 -0.0783,-3.6e-4 -0.0783,-3.7e-4 0.1758,7.07797 0.1758,7.07797 0.22107,1.1685 0.22108,1.1685 0.92604,0.52316 0.92604,0.52315 1.22905,0.62345 1.22905,0.62345 h 0.2923 0.29231 v 0.26458 0.26459 h 0.40046 0.40047 l 0.45943,0.24296 0.45943,0.24296 1.25389,0.55079 1.25388,0.55079 h 0.38415 0.38414 l 0.14073,0.2277 0.14073,0.2277 3.11603,0.98365 3.11603,0.98365 1.05834,0.27402 1.05833,0.27401 0.52917,0.2164 0.52916,0.21639 0.92604,0.16034 0.92605,0.16034 1.32291,0.25807 1.32292,0.25808 2.38125,0.33673 2.38125,0.33673 0.069,11.13441 0.069,11.13442 2.38815,0.0483 2.38816,0.0483 z m -58.54882,-69.34007 -0.79375,-0.27178 -0.52916,-0.19384 -0.52917,-0.19384 -0.7028,-0.33142 -0.70281,-0.33142 -1.24014,-1.07781 -1.24014,-1.07781 -1.03233,-1.52018 -1.03234,-1.52018 -0.19972,-0.12091 -0.19972,-0.12091 -5.15938,0.37111 -5.15937,0.37111 -4.10104,0.28718 -4.10104,0.28717 -3.83646,0.24278 -3.83646,0.24277 -3.43958,0.24613 -3.43959,0.24612 -3.43958,0.25516 -3.43958,0.25515 -2.85691,0.28052 -2.8569,0.28052 -0.84726,-0.14459 -0.84727,-0.14459 -0.52916,-0.20963 -0.52917,-0.20962 -1.28285,-0.6177 -1.28286,-0.6177 -0.73218,-0.88826 -0.73218,-0.88826 -0.33094,-0.71037 -0.33094,-0.71037 -0.23371,-0.45943 -0.23371,-0.45943 v -0.55016 -0.55015 l -0.29665,-0.55428 -0.29664,-0.55428 0.34159,-1.47885 0.34159,-1.47884 0.51574,-1.12953 0.51573,-1.12954 0.88554,-0.88554 0.88554,-0.88554 1.39805,-0.67173 1.39805,-0.67173 0.79375,-0.16379 0.79375,-0.16379 7.14375,0.42935 7.14375,0.42935 4.23333,0.24019 4.23333,0.24019 4.23334,0.27521 4.23333,0.2752 4.36563,0.25756 4.36562,0.25756 3.35705,0.14764 3.35705,0.14763 0.6846,-1.08448 0.68461,-1.08448 1.25001,-1.1837 1.25001,-1.1837 0.33073,-0.001 0.33073,-10e-4 v -0.24676 -0.24675 l 0.49907,-0.1584 0.49907,-0.1584 0.162,-7.73078 0.162,-7.73079 0.14753,-32.495988 0.14753,-32.495992 0.54012,-0.973798 0.54011,-0.973799 0.55389,-0.6 0.5539,-0.6 1.3883,-0.65677 1.3883,-0.656771 1.00857,0.0032 1.00857,0.0032 1.06779,0.610732 1.0678,0.610732 0.7501,0.642851 0.7501,0.642852 0.6295,0.98693 0.6295,0.98693 0.004,5.230778 0.004,5.230779 -0.27168,7.276041 -0.27169,7.276041 -0.27385,14.155208 -0.27385,14.155208 -0.28368,10.847916 -0.28368,10.84792 -4.4e-4,2.47201 -4.4e-4,2.47202 1.55352,1.03025 1.55352,1.03026 0.83973,0.96942 0.83973,0.96942 0.48319,0.95226 0.48319,0.95227 0.19843,0.0882 0.19844,0.0882 v 0.5865 0.58649 l 0.30537,0.30537 0.30537,0.30536 0.008,3.38557 0.008,3.38557 -1.03581,2.11667 -1.03582,2.11667 -1.63436,1.65364 -1.63436,1.65365 h -0.42138 -0.42137 v 0.26458 0.26459 h -0.40046 -0.40047 l -0.45943,0.2321 -0.45943,0.2321 -0.94483,0.29707 -0.94482,0.29706 -2.36247,-0.0282 -2.36247,-0.0281 z m -85.46041,-8.09029 -1.05834,-0.084 -0.7276,-0.69312 -0.7276,-0.69312 v -2.48294 -2.48294 l 0.33073,-0.32265 0.33072,-0.32266 0.65419,-0.45219 0.65418,-0.4522 h 6.42583 6.42583 l 0.79134,0.75625 0.79134,0.75625 v 2.51496 2.51497 l -0.69753,0.69753 -0.69754,0.69754 -0.42694,0.0192 -0.42695,0.0192 -5.29166,0.0469 -5.29167,0.0469 z"
       id="path1" /></g></svg>
